<svg width="210" height="210" viewBox="0 0 210 210" fill="none" xmlns="http://www.w3.org/2000/svg">
<path d="M178.344 14.9648L114.939 63.5558L126.664 34.8878L178.344 14.9648Z" fill="#E2761B" stroke="#E2761B" stroke-width="0.639" stroke-linecap="round" stroke-linejoin="round"/>
<path d="M31.9718 14.9648L94.8668 64.0168L83.7148 34.8878L31.9718 14.9648ZM155.531 127.6L138.644 154.296L174.775 164.553L185.162 128.192L155.531 127.6ZM25.2808 128.192L35.6038 164.553L71.7348 154.296L54.8498 127.6L25.2808 128.192Z" fill="#E4761B" stroke="#E4761B" stroke-width="0.639" stroke-linecap="round" stroke-linejoin="round"/>
<path d="M69.6969 82.4914L59.6299 98.2064L95.5059 99.8504L94.2319 60.0704L69.6969 82.4914ZM140.621 82.4914L115.769 59.6094L114.94 99.8504L150.753 98.2064L140.621 82.4914ZM71.7359 154.294L93.2749 143.444L74.6669 128.453L71.7359 154.294ZM117.043 143.444L138.645 154.294L135.65 128.453L117.043 143.444Z" fill="#E4761B" stroke="#E4761B" stroke-width="0.639" stroke-linecap="round" stroke-linejoin="round"/>
<path d="M138.643 154.295L117.041 143.445L118.762 157.977L118.571 164.092L138.643 154.295ZM71.7339 154.295L91.8069 164.092L91.6799 157.977L93.2729 143.445L71.7339 154.295Z" fill="#D7C1B3" stroke="#D7C1B3" stroke-width="0.639" stroke-linecap="round" stroke-linejoin="round"/>
<path d="M92.1258 118.855L74.1558 113.398L86.8368 107.414L92.1258 118.855ZM118.189 118.855L123.478 107.414L136.222 113.398L118.189 118.855Z" fill="#233447" stroke="#233447" stroke-width="0.639" stroke-linecap="round" stroke-linejoin="round"/>
<path d="M71.7361 154.294L74.7951 127.599L54.8501 128.19L71.7361 154.294ZM135.587 127.599L138.645 154.294L155.532 128.19L135.587 127.599ZM150.753 98.207L114.94 99.851L118.254 118.853L123.543 107.412L136.288 113.396L150.753 98.207ZM74.1581 113.396L86.9021 107.412L92.1271 118.853L95.5051 99.851L59.6291 98.207L74.1581 113.396Z" fill="#CD6116" stroke="#CD6116" stroke-width="0.639" stroke-linecap="round" stroke-linejoin="round"/>
<path d="M59.6289 98.2109L74.6679 128.457L74.1579 113.4L59.6279 98.2109H59.6289ZM136.288 113.4L135.65 128.457L150.753 98.2109L136.288 113.4ZM95.5049 99.8549L92.1279 118.857L96.3329 141.279L97.2889 111.756L95.5049 99.8549ZM114.94 99.8549L113.22 111.69L113.985 141.279L118.254 118.857L114.94 99.8549Z" fill="#E4751F" stroke="#E4751F" stroke-width="0.639" stroke-linecap="round" stroke-linejoin="round"/>
<path d="M118.253 118.853L113.983 141.275L117.042 143.445L135.649 128.453L136.286 113.395L118.253 118.853ZM74.1558 113.395L74.6658 128.453L93.2728 143.445L96.3318 141.275L92.1258 118.853L74.1558 113.395Z" fill="#F6851B" stroke="#F6851B" stroke-width="0.639" stroke-linecap="round" stroke-linejoin="round"/>
<path d="M118.571 164.094L118.762 157.979L117.169 156.532H93.1449L91.6799 157.979L91.8069 164.094L71.7339 154.297L78.7439 160.215L92.9539 170.406H117.36L131.634 160.215L138.643 154.297L118.571 164.094Z" fill="#C0AD9E" stroke="#C0AD9E" stroke-width="0.639" stroke-linecap="round" stroke-linejoin="round"/>
<path d="M117.041 143.447L113.983 141.277H96.3322L93.2722 143.447L91.6802 157.979L93.1452 156.532H117.169L118.762 157.979L117.041 143.447Z" fill="#161616" stroke="#161616" stroke-width="0.639" stroke-linecap="round" stroke-linejoin="round"/>
<path d="M181.02 66.7128L186.437 39.8848L178.344 14.9648L117.043 61.9118L140.62 82.4928L173.947 92.5528L181.339 83.6768L178.153 81.3098L183.251 76.5098L179.3 73.3538L184.398 69.3428L181.02 66.7128ZM23.9429 39.8848L29.3599 66.7128L25.9189 69.3428L31.0169 73.3528L27.1299 76.5098L32.2269 81.3098L29.0409 83.6768L36.3689 92.5528L69.6959 82.4928L93.2739 61.9128L31.9719 14.9648L23.9429 39.8848Z" fill="#763D16" stroke="#763D16" stroke-width="0.639" stroke-linecap="round" stroke-linejoin="round"/>
<path d="M173.947 92.5517L140.62 82.4917L150.752 98.2067L135.649 128.453L155.531 128.19H185.162L173.947 92.5517ZM69.6968 82.4917L36.3688 92.5517L25.2808 128.19H54.8498L74.6678 128.453L59.6278 98.2067L69.6968 82.4917ZM114.939 99.8507L117.042 61.9107L126.728 34.8867H83.7148L93.2738 61.9107L95.5038 99.8507L96.2688 111.818L96.3318 141.275H113.984L114.111 111.818L114.939 99.8507Z" fill="#F6851B" stroke="#F6851B" stroke-width="0.639" stroke-linecap="round" stroke-linejoin="round"/>
</svg>
