<svg width="800" height="800" viewBox="0 0 800 800" fill="none" xmlns="http://www.w3.org/2000/svg">
<circle cx="400.252" cy="400.261" r="374.539" stroke="url(#paint0_linear_106_3461)" stroke-width="12.8261"/>
<path d="M659.289 616.101C540.074 759.165 327.455 778.498 184.391 659.283C41.3268 540.068 21.9937 327.448 141.209 184.384C260.424 41.3205 473.043 21.9874 616.107 141.203C759.171 260.418 778.504 473.037 659.289 616.101Z" stroke="url(#paint1_linear_106_3461)" stroke-width="62.5273"/>
<circle cx="400.249" cy="400.241" r="299.283" transform="rotate(72.6929 400.249 400.241)" stroke="url(#paint2_linear_106_3461)" stroke-width="16.0326"/>
<path d="M491.704 401.543C491.704 421.857 487.77 438.993 479.903 452.951C472.036 466.851 461.418 477.394 448.049 484.581C434.681 491.709 419.774 495.273 403.33 495.273C386.767 495.273 371.802 491.679 358.433 484.492C345.124 477.245 334.536 466.672 326.668 452.773C318.86 438.815 314.956 421.738 314.956 401.543C314.956 381.228 318.86 364.122 326.668 350.223C334.536 336.264 345.124 325.721 358.433 318.593C371.802 311.406 386.767 307.812 403.33 307.812C419.774 307.812 434.681 311.406 448.049 318.593C461.418 325.721 472.036 336.264 479.903 350.223C487.77 364.122 491.704 381.228 491.704 401.543ZM440.951 401.543C440.951 390.613 439.502 381.407 436.603 373.922C433.764 366.379 429.535 360.677 423.915 356.816C418.355 352.896 411.493 350.935 403.33 350.935C395.167 350.935 388.276 352.896 382.656 356.816C377.096 360.677 372.866 366.379 369.968 373.922C367.129 381.407 365.709 390.613 365.709 401.543C365.709 412.472 367.129 421.708 369.968 429.252C372.866 436.736 377.096 442.438 382.656 446.358C388.276 450.219 395.167 452.15 403.33 452.15C411.493 452.15 418.355 450.219 423.915 446.358C429.535 442.438 433.764 436.736 436.603 429.252C439.502 421.708 440.951 412.472 440.951 401.543Z" fill="url(#paint3_linear_106_3461)"/>
<path d="M484.054 401.623C484.054 420.208 480.455 435.886 473.258 448.657C466.06 461.373 456.346 471.019 444.115 477.594C431.884 484.115 418.246 487.376 403.202 487.376C388.048 487.376 374.356 484.088 362.126 477.513C349.949 470.883 340.262 461.21 333.064 448.494C325.921 435.723 322.349 420.099 322.349 401.623C322.349 383.038 325.921 367.387 333.064 354.671C340.262 341.9 349.949 332.254 362.126 325.733C374.356 319.158 388.048 315.87 403.202 315.87C418.246 315.87 431.884 319.158 444.115 325.733C456.346 332.254 466.06 341.9 473.258 354.671C480.455 367.387 484.054 383.038 484.054 401.623ZM437.621 401.623C437.621 391.624 436.295 383.201 433.643 376.353C431.045 369.452 427.176 364.235 422.035 360.703C416.948 357.116 410.67 355.323 403.202 355.323C395.733 355.323 389.428 357.116 384.287 360.703C379.2 364.235 375.331 369.452 372.679 376.353C370.081 383.201 368.782 391.624 368.782 401.623C368.782 411.622 370.081 420.072 372.679 426.974C375.331 433.821 379.2 439.038 384.287 442.625C389.428 446.157 395.733 447.923 403.202 447.923C410.67 447.923 416.948 446.157 422.035 442.625C427.176 439.038 431.045 433.821 433.643 426.974C436.295 420.072 437.621 411.622 437.621 401.623Z" fill="url(#paint4_linear_106_3461)"/>
<path d="M193.465 376.057C193.465 376.057 211.422 350.277 230.926 345.48C253.944 339.82 274.997 337.964 274.997 337.964L249.814 319.077C273.884 267.457 340.562 239.962 407.424 239.962C484.983 239.962 546.944 255.435 605 358.5C563.252 234.561 487.658 190.8 407.424 190.8C327.189 190.8 257.653 232.588 220.21 291.582L196.009 271.071C196.009 271.071 197.911 302.913 196.009 345.48C194.831 371.86 193.465 376.057 193.465 376.057Z" fill="url(#paint5_linear_106_3461)"/>
<path d="M193.47 376.054C193.47 376.054 213.06 355.494 231.72 348.192C249.82 341.109 278.938 337.961 278.938 337.961L251.394 319.074C284.447 283.66 312.778 241.678 407.428 241.678C455.634 241.678 546.837 247.873 605 358.5C567.818 241.35 469.985 198.625 407.428 198.625C335.609 198.625 257.657 238.647 220.215 295.149L196.5 275C196.5 275 197.915 306.001 196.014 346.77C194.835 372.034 193.47 376.054 193.47 376.054Z" fill="black"/>
<path d="M193.47 376.054C193.47 376.054 213.06 355.494 231.72 348.192C249.82 341.109 278.938 337.961 278.938 337.961L251.394 319.074C284.447 283.66 312.778 241.678 407.428 241.678C455.634 241.678 546.837 247.873 605 358.5C567.818 241.35 469.985 198.625 407.428 198.625C335.609 198.625 257.657 238.647 220.215 295.149L196.5 275C196.5 275 197.915 306.001 196.014 346.77C194.835 372.034 193.47 376.054 193.47 376.054Z" fill="url(#paint6_linear_106_3461)"/>
<path d="M603.635 417.777C603.635 417.777 585.678 443.557 566.174 448.354C543.157 454.014 522.104 455.87 522.104 455.87L547.287 474.757C523.216 526.377 456.539 553.872 389.677 553.872C312.117 553.872 250.156 538.399 192.101 435.334C233.849 559.273 309.443 603.034 389.677 603.034C469.911 603.034 539.448 561.246 576.891 502.252L601.091 522.763C601.091 522.763 599.19 490.921 601.091 448.354C602.27 421.974 603.635 417.777 603.635 417.777Z" fill="url(#paint7_linear_106_3461)"/>
<path d="M603.631 417.78C603.631 417.78 584.041 438.34 565.381 445.642C547.28 452.725 518.162 455.872 518.162 455.872L545.706 474.76C512.653 510.174 484.322 552.156 389.672 552.156C341.467 552.156 250.263 545.961 192.101 435.334C229.282 552.484 327.116 595.209 389.672 595.209C461.492 595.209 539.443 555.187 576.886 498.685L600.601 518.834C600.601 518.834 599.185 487.833 601.087 447.064C602.265 421.8 603.631 417.78 603.631 417.78Z" fill="black"/>
<path d="M603.631 417.78C603.631 417.78 584.041 438.34 565.381 445.642C547.28 452.725 518.162 455.872 518.162 455.872L545.706 474.76C512.653 510.174 484.322 552.156 389.672 552.156C341.467 552.156 250.263 545.961 192.101 435.334C229.282 552.484 327.116 595.209 389.672 595.209C461.492 595.209 539.443 555.187 576.886 498.685L600.601 518.834C600.601 518.834 599.185 487.833 601.087 447.064C602.265 421.8 603.631 417.78 603.631 417.78Z" fill="url(#paint8_linear_106_3461)"/>
<defs>
<linearGradient id="paint0_linear_106_3461" x1="19.2998" y1="400.261" x2="781.204" y2="400.261" gradientUnits="userSpaceOnUse">
<stop stop-color="#7C5E41"/>
<stop offset="0.24" stop-color="#FEFFD7"/>
<stop offset="0.655" stop-color="#7C5E41"/>
<stop offset="1" stop-color="#B59E74"/>
</linearGradient>
<linearGradient id="paint1_linear_106_3461" x1="52.7473" y1="119.408" x2="677.656" y2="918.675" gradientUnits="userSpaceOnUse">
<stop stop-color="#7C5E41"/>
<stop offset="0.24" stop-color="#FEFFD7"/>
<stop offset="0.655" stop-color="#7C5E41"/>
<stop offset="1" stop-color="#B59E74"/>
</linearGradient>
<linearGradient id="paint2_linear_106_3461" x1="710.417" y1="93.5279" x2="116.356" y2="625.883" gradientUnits="userSpaceOnUse">
<stop stop-color="#7C5E41"/>
<stop offset="0.24" stop-color="#FEFFD7"/>
<stop offset="0.655" stop-color="#7C5E41"/>
<stop offset="1" stop-color="#B59E74"/>
</linearGradient>
<linearGradient id="paint3_linear_106_3461" x1="314.956" y1="401.543" x2="491.704" y2="401.543" gradientUnits="userSpaceOnUse">
<stop stop-color="#7C5E41"/>
<stop offset="0.24" stop-color="#FEFFD7"/>
<stop offset="0.655" stop-color="#7C5E41"/>
<stop offset="1" stop-color="#B59E74"/>
</linearGradient>
<linearGradient id="paint4_linear_106_3461" x1="545.006" y1="649.274" x2="244.333" y2="-73.3915" gradientUnits="userSpaceOnUse">
<stop stop-color="#7C5E41"/>
<stop offset="0.24" stop-color="#FEFFD7"/>
<stop offset="0.655" stop-color="#7C5E41"/>
<stop offset="1" stop-color="#B59E74"/>
</linearGradient>
<linearGradient id="paint5_linear_106_3461" x1="669.275" y1="272.897" x2="170.704" y2="-37.9364" gradientUnits="userSpaceOnUse">
<stop stop-color="#7C5E41"/>
<stop offset="0.301826" stop-color="#7C5E41"/>
<stop offset="0.86934" stop-color="#FEFFD7"/>
<stop offset="1" stop-color="#B59E74"/>
</linearGradient>
<linearGradient id="paint6_linear_106_3461" x1="577.997" y1="231.894" x2="262.736" y2="31.886" gradientUnits="userSpaceOnUse">
<stop stop-color="#7C5E41"/>
<stop offset="0.545135" stop-color="#FEFFD7"/>
<stop offset="1" stop-color="#B59E74"/>
</linearGradient>
<linearGradient id="paint7_linear_106_3461" x1="127.825" y1="520.937" x2="626.396" y2="831.77" gradientUnits="userSpaceOnUse">
<stop stop-color="#7C5E41"/>
<stop offset="0.301826" stop-color="#7C5E41"/>
<stop offset="0.86934" stop-color="#FEFFD7"/>
<stop offset="1" stop-color="#B59E74"/>
</linearGradient>
<linearGradient id="paint8_linear_106_3461" x1="219.104" y1="561.94" x2="534.365" y2="761.948" gradientUnits="userSpaceOnUse">
<stop stop-color="#7C5E41"/>
<stop offset="0.545135" stop-color="#FEFFD7"/>
<stop offset="1" stop-color="#B59E74"/>
</linearGradient>
</defs>
</svg>
